<?xml version="1.0" encoding="utf-8"?>
<!-- Generator: Adobe Illustrator 25.2.1, SVG Export Plug-In . SVG Version: 6.00 Build 0)  -->
<svg version="1.1" id="Layer_1" xmlns="http://www.w3.org/2000/svg" xmlns:xlink="http://www.w3.org/1999/xlink" x="0px" y="0px"
	 viewBox="0 0 417.9 52.2" style="enable-background:new 0 0 417.9 52.2;" xml:space="preserve">
<style type="text/css">
	.st0{fill:#FFFFFF;}
	.st1{fill:none;stroke:#CDCDCD;stroke-width:1.5;stroke-miterlimit:10;}
	.st2{fill:#1A1F71;}
	.st3{fill:none;}
	.st4{fill:#231F20;}
	.st5{fill:#FF5F00;}
	.st6{fill:#EB001B;}
	.st7{fill:#F79E1B;}
	.st8{fill:#7673C0;}
	.st9{fill:#00A1DF;}
	.st10{fill:#3C4043;}
	.st11{fill:#4285F4;}
	.st12{fill:#34A853;}
	.st13{fill:#FABB05;}
	.st14{fill:#E94235;}
</style>
<g>
	<path id="XMLID_4_" d="M313.9,2.6H254c-0.2,0-0.5,0-0.7,0s-0.4,0-0.6,0c-0.5,0-0.9,0-1.4,0.1s-0.9,0.2-1.3,0.4
		c-0.4,0.2-0.8,0.5-1.1,0.8s-0.6,0.7-0.8,1.1s-0.3,0.8-0.4,1.3c-0.1,0.5-0.1,0.9-0.1,1.4c0,0.2,0,0.4,0,0.6s0,0.5,0,0.7v33.7
		c0,0.3,0,0.5,0,0.7s0,0.4,0,0.6c0,0.5,0,0.9,0.1,1.4s0.2,0.9,0.4,1.3c0.2,0.4,0.5,0.8,0.8,1.1s0.7,0.6,1.1,0.8
		c0.4,0.2,0.8,0.3,1.3,0.4c0.5,0.1,0.9,0.1,1.4,0.1c0.2,0,0.4,0,0.6,0c0.2,0,0.5,0,0.7,0h59.9c0.2,0,0.5,0,0.7,0s0.4,0,0.6,0
		c0.5,0,0.9,0,1.4-0.1s0.9-0.2,1.3-0.4s0.8-0.5,1.1-0.8c0.3-0.3,0.6-0.7,0.8-1.1c0.2-0.4,0.3-0.8,0.4-1.3s0.1-0.9,0.1-1.4
		c0-0.2,0-0.4,0-0.6c0-0.3,0-0.5,0-0.7V9.2c0-0.3,0-0.5,0-0.7s0-0.4,0-0.6c0-0.5,0-0.9-0.1-1.4s-0.2-0.9-0.4-1.3
		c-0.2-0.4-0.5-0.8-0.8-1.1s-0.7-0.6-1.1-0.8s-0.8-0.3-1.3-0.4c-0.5-0.1-0.9-0.1-1.4-0.1c-0.2,0-0.4,0-0.6,0
		C314.4,2.6,314.2,2.6,313.9,2.6L313.9,2.6z"/>
	<path id="XMLID_3_" class="st0" d="M313.9,4.2h0.7c0.2,0,0.4,0,0.6,0c0.3,0,0.8,0,1.1,0.1c0.3,0.1,0.6,0.2,0.9,0.3
		c0.3,0.1,0.5,0.3,0.7,0.5s0.4,0.5,0.5,0.7c0.1,0.3,0.2,0.5,0.3,0.9c0.1,0.4,0.1,0.8,0.1,1.1c0,0.2,0,0.4,0,0.6s0,0.5,0,0.7v33.7
		c0,0.2,0,0.5,0,0.7s0,0.4,0,0.6c0,0.4,0,0.8-0.1,1.1s-0.1,0.6-0.3,0.9c-0.1,0.3-0.3,0.5-0.5,0.7s-0.5,0.4-0.7,0.5
		c-0.3,0.1-0.5,0.2-0.9,0.3s-0.8,0.1-1.1,0.1c-0.2,0-0.4,0-0.6,0s-0.5,0-0.7,0H254l0,0c-0.2,0-0.5,0-0.7,0s-0.4,0-0.6,0
		c-0.3,0-0.8,0-1.1-0.1s-0.6-0.2-0.9-0.3c-0.3-0.1-0.5-0.3-0.7-0.5s-0.4-0.5-0.5-0.7c-0.1-0.3-0.2-0.5-0.3-0.9s-0.1-0.8-0.1-1.1
		c0-0.2,0-0.4,0-0.6v-0.6v-0.2V9.2V9V8.4c0-0.2,0-0.4,0-0.6c0-0.3,0-0.8,0.1-1.1c0.1-0.3,0.1-0.6,0.3-0.9c0.1-0.3,0.3-0.5,0.5-0.7
		s0.5-0.4,0.7-0.5c0.3-0.1,0.5-0.2,0.9-0.3c0.4-0.1,0.8-0.1,1.1-0.1c0.2,0,0.4,0,0.6,0h0.7H313.9"/>
	<g>
		<g>
			<path d="M267.4,18.3c0.6-0.8,1-1.8,0.9-2.9c-0.9,0-2,0.6-2.7,1.4c-0.6,0.7-1.1,1.8-1,2.8C265.7,19.7,266.7,19.1,267.4,18.3"/>
			<path d="M268.3,19.8c-1.5-0.1-2.8,0.8-3.5,0.8s-1.8-0.8-3-0.8c-1.5,0-3,0.9-3.7,2.3c-1.6,2.8-0.4,6.9,1.1,9.1
				c0.8,1.1,1.7,2.3,2.9,2.3c1.1,0,1.6-0.7,3-0.7s1.8,0.7,3,0.7s2-1.1,2.8-2.2c0.9-1.3,1.2-2.5,1.2-2.6c0,0-2.4-0.9-2.4-3.7
				c0-2.3,1.9-3.4,2-3.5C270.6,20,268.9,19.9,268.3,19.8"/>
		</g>
		<g>
			<path d="M281.3,16.7c3.2,0,5.5,2.2,5.5,5.5s-2.3,5.5-5.6,5.5h-3.6v5.7H275V16.7H281.3L281.3,16.7z M277.6,25.5h3
				c2.3,0,3.5-1.2,3.5-3.3s-1.3-3.3-3.5-3.3h-3V25.5z"/>
			<path d="M287.5,30c0-2.1,1.6-3.4,4.5-3.6l3.3-0.2v-0.9c0-1.4-0.9-2.2-2.4-2.2c-1.4,0-2.4,0.7-2.6,1.8H288c0.1-2.2,2-3.8,5-3.8
				s4.8,1.6,4.8,4v8.4h-2.4v-2h-0.1c-0.7,1.4-2.2,2.2-3.8,2.2C289.1,33.6,287.5,32.2,287.5,30z M295.3,28.9v-1l-3,0.2
				c-1.5,0.1-2.3,0.8-2.3,1.8c0,1.1,0.9,1.8,2.2,1.8C294,31.7,295.3,30.5,295.3,28.9z"/>
			<path d="M300.1,37.9v-2c0.2,0,0.6,0,0.8,0c1.2,0,1.8-0.5,2.2-1.7c0,0,0.2-0.7,0.2-0.8l-4.4-12.2h2.7l3.1,9.9l0,0l3.1-9.9h2.6
				L305.8,34c-1,3-2.2,3.9-4.8,3.9C300.9,38,300.3,37.9,300.1,37.9z"/>
		</g>
	</g>
</g>
<g>
	<path class="st1" d="M74,46.2c0,1.5-1.2,2.7-2.7,2.7H4.1c-1.5,0-2.7-1.2-2.7-2.7V5.8c0-1.5,1.2-2.7,2.7-2.7h67.2
		c1.5,0,2.7,1.2,2.7,2.7C74,5.8,74,46.2,74,46.2z"/>
	<path class="st2" d="M30.3,16.4l-8.1,19.3h-5.3l-4-15.4c-0.2-0.9-0.5-1.3-1.2-1.7C10.5,18,8.5,17.3,6.8,17L7,16.4h8.5
		c1.1,0,2.1,0.7,2.3,2l2.1,11.2L25,16.4H30.3z M50.9,29.3c0-5.1-7-5.4-7-7.6c0-0.7,0.7-1.4,2.1-1.6c0.7-0.1,2.7-0.2,4.9,0.9l0.9-4.1
		c-1.2-0.4-2.7-0.9-4.7-0.9c-4.9,0-8.4,2.6-8.4,6.4c0,2.8,2.5,4.3,4.4,5.2c1.9,0.9,2.6,1.5,2.6,2.4c0,1.3-1.5,1.9-3,1.9
		c-2.5,0-4-0.7-5.1-1.2l-0.9,4.2c1.2,0.5,3.3,1,5.5,1C47.5,36,50.9,33.4,50.9,29.3 M63.9,35.6h4.6l-4-19.3h-4.3
		c-1,0-1.8,0.6-2.1,1.4l-7.5,17.9h5.2l1-2.9h6.4L63.9,35.6z M58.4,28.8l2.6-7.2l1.5,7.2H58.4z M37.4,16.4l-4.1,19.3h-5l4.1-19.3
		C32.4,16.4,37.4,16.4,37.4,16.4z"/>
</g>
<g>
	<g id="Layer_2_1_">
		<g id="Layer_1-2">
			<rect x="87.8" y="-0.2" class="st3" width="63.8" height="52.3"/>
			<path class="st4" d="M103.6,45.6V43c0.1-0.9-0.6-1.6-1.4-1.7c-0.1,0-0.1,0-0.2,0c-0.6,0-1.1,0.2-1.5,0.7
				c-0.3-0.5-0.8-0.8-1.4-0.7c-0.5,0-0.9,0.2-1.2,0.6v-0.5H97v4.2h0.9v-2.3c-0.1-0.5,0.3-1,0.8-1.1c0.1,0,0.1,0,0.2,0
				c0.6,0,0.9,0.4,0.9,1.1v2.3h0.9v-2.3c-0.1-0.5,0.3-1,0.8-1.1c0.1,0,0.1,0,0.2,0c0.6,0,0.9,0.4,0.9,1.1v2.3L103.6,45.6z
				 M117.1,41.4h-1.5v-1.3h-0.9v1.3h-0.8v0.8h0.8v1.9c0,1,0.4,1.5,1.4,1.5c0.4,0,0.8-0.1,1.1-0.3l-0.3-0.8c-0.2,0.1-0.5,0.2-0.8,0.2
				c-0.4,0-0.6-0.3-0.6-0.7v-1.9h1.5L117.1,41.4z M124.8,41.3c-0.4,0-0.9,0.2-1.1,0.6v-0.5h-0.9v4.2h0.9v-2.3c0-0.7,0.3-1.1,0.9-1.1
				c0.2,0,0.4,0,0.6,0.1l0.3-0.9C125.2,41.4,125,41.3,124.8,41.3L124.8,41.3z M113.1,41.8c-0.5-0.3-1.1-0.5-1.7-0.4
				c-1.1,0-1.7,0.5-1.7,1.3c0,0.7,0.5,1.1,1.4,1.2l0.4,0.1c0.5,0.1,0.7,0.2,0.7,0.4c0,0.3-0.3,0.5-0.9,0.5c-0.5,0-1-0.1-1.4-0.4
				l-0.4,0.7c0.5,0.4,1.2,0.6,1.8,0.5c1.2,0,1.9-0.6,1.9-1.4s-0.5-1.1-1.5-1.2l-0.4-0.1c-0.4-0.1-0.7-0.1-0.7-0.4
				c0-0.3,0.3-0.5,0.8-0.5c0.5,0,0.9,0.1,1.3,0.4L113.1,41.8z M137.4,41.3c-0.4,0-0.9,0.2-1.1,0.6v-0.5h-0.9v4.2h0.9v-2.3
				c0-0.7,0.3-1.1,0.9-1.1c0.2,0,0.4,0,0.6,0.1l0.3-0.9C137.8,41.4,137.6,41.3,137.4,41.3L137.4,41.3z M125.7,43.5
				c0,1.2,0.9,2.1,2,2.2c0.1,0,0.1,0,0.2,0c0.5,0,1.1-0.1,1.5-0.5l-0.4-0.7c-0.3,0.2-0.7,0.4-1.1,0.4c-0.7-0.1-1.3-0.7-1.2-1.4
				c0.1-0.7,0.6-1.2,1.2-1.2c0.4,0,0.8,0.1,1.1,0.4l0.4-0.7c-0.4-0.3-1-0.5-1.5-0.5c-1.2-0.1-2.1,0.8-2.2,2
				C125.7,43.4,125.7,43.4,125.7,43.5L125.7,43.5z M134.2,43.5v-2.1h-0.9V42c-0.3-0.4-0.8-0.6-1.3-0.6c-1.2,0-2.2,1-2.2,2.2
				c0,1.2,1,2.2,2.2,2.2c0.5,0,1-0.2,1.3-0.6v0.5h0.9V43.5z M130.8,43.5c0-0.7,0.6-1.2,1.3-1.2c0.7,0,1.2,0.6,1.2,1.3
				c0,0.7-0.6,1.2-1.2,1.2C131.4,44.9,130.8,44.3,130.8,43.5C130.8,43.6,130.8,43.6,130.8,43.5z M119.9,41.3c-1.2,0-2.2,1-2.1,2.2
				c0,1.2,1,2.2,2.2,2.1l0,0c0.6,0,1.2-0.2,1.7-0.6l-0.4-0.7c-0.3,0.3-0.8,0.4-1.2,0.4c-0.6,0.1-1.2-0.4-1.2-1h3.1
				c0-0.1,0-0.2,0-0.3C121.9,42.2,121.1,41.4,119.9,41.3L119.9,41.3z M119.9,42.2c0.6,0,1,0.4,1.1,1c0,0,0,0,0,0h-2.2
				C118.8,42.6,119.3,42.1,119.9,42.2L119.9,42.2z M142.6,43.5v-3.7h-0.9V42c-0.3-0.4-0.8-0.6-1.3-0.6c-1.2,0-2.2,1-2.2,2.2
				c0,1.2,1,2.2,2.2,2.2c0.5,0,1-0.2,1.3-0.6v0.5h0.9V43.5z M144.1,45c0.1,0,0.1,0,0.2,0c0,0,0.1,0,0.1,0.1c0,0,0.1,0.1,0.1,0.1
				c0,0.1,0,0.2,0,0.3c0,0-0.1,0.1-0.1,0.1c0,0-0.1,0.1-0.1,0.1c-0.1,0-0.1,0-0.2,0c-0.2,0-0.3-0.1-0.4-0.3c0-0.1,0-0.2,0-0.3
				c0,0,0.1-0.1,0.1-0.1c0,0,0.1-0.1,0.1-0.1C144,45,144,45,144.1,45L144.1,45z M144.1,45.7c0,0,0.1,0,0.1,0c0,0,0.1,0,0.1-0.1
				c0.1-0.1,0.1-0.3,0-0.4c0,0-0.1-0.1-0.1-0.1c0,0-0.1,0-0.1,0c0,0-0.1,0-0.1,0c0,0-0.1,0-0.1,0.1c-0.1,0.1-0.1,0.3,0,0.4
				c0,0,0.1,0.1,0.1,0.1C144,45.7,144,45.7,144.1,45.7L144.1,45.7z M144.1,45.2c0,0,0.1,0,0.1,0c0,0,0,0.1,0,0.1c0,0,0,0.1,0,0.1
				c0,0-0.1,0-0.1,0l0.1,0.1h-0.1l-0.1-0.1h0v0.1h-0.1v-0.4L144.1,45.2z M144,45.3v0.1h0.1c0,0,0,0,0.1,0c0,0,0,0,0,0c0,0,0,0,0,0
				C144.1,45.3,144.1,45.3,144,45.3L144,45.3z M139.2,43.5c0-0.7,0.6-1.2,1.3-1.2c0.7,0,1.2,0.6,1.2,1.3c0,0.7-0.6,1.2-1.2,1.2
				C139.8,44.9,139.2,44.3,139.2,43.5C139.2,43.6,139.2,43.6,139.2,43.5z M108.7,43.5v-2.1h-0.9V42c-0.3-0.4-0.8-0.6-1.3-0.6
				c-1.2,0-2.2,1-2.2,2.2c0,1.2,1,2.2,2.2,2.2c0.5,0,1-0.2,1.3-0.6v0.5h0.9V43.5z M105.3,43.5c0-0.7,0.6-1.2,1.3-1.2
				s1.2,0.6,1.2,1.3c0,0.7-0.6,1.2-1.2,1.2c-0.7,0-1.3-0.5-1.3-1.2C105.3,43.6,105.3,43.6,105.3,43.5L105.3,43.5z"/>
			<g id="_Group_">
				<rect x="112.9" y="9.8" class="st5" width="13.7" height="24.6"/>
				<path id="_Path_" class="st6" d="M113.7,22.1c0-4.8,2.2-9.3,6-12.3c-6.8-5.3-16.6-4.2-22,2.6c-5.3,6.8-4.2,16.6,2.6,22
					c5.7,4.5,13.7,4.5,19.3,0C115.9,31.4,113.7,26.9,113.7,22.1z"/>
				<path class="st7" d="M145,22.1c0,8.6-7,15.6-15.6,15.6c-3.5,0-6.9-1.2-9.7-3.3c6.8-5.3,8-15.2,2.6-22c-0.8-1-1.7-1.9-2.6-2.6
					c6.8-5.3,16.6-4.2,22,2.6C143.8,15.2,145,18.6,145,22.1L145,22.1z"/>
				<path class="st7" d="M143.5,31.8v-0.5h0.2v-0.1h-0.5v0.1h0.2L143.5,31.8L143.5,31.8z M144.5,31.8v-0.6h-0.2l-0.2,0.4l-0.2-0.4
					h-0.1v0.6h0.1v-0.4l0.2,0.4h0.1l0.2-0.4L144.5,31.8L144.5,31.8z"/>
			</g>
		</g>
	</g>
	<path class="st1" d="M156,46.2c0,1.5-1.2,2.7-2.7,2.7H86.1c-1.5,0-2.7-1.2-2.7-2.7V5.8c0-1.5,1.2-2.7,2.7-2.7h67.2
		c1.5,0,2.7,1.2,2.7,2.7C156,5.8,156,46.2,156,46.2z"/>
</g>
<g>
	<rect x="177.7" y="6.3" class="st3" width="48" height="39.4"/>
	<g>
		<path d="M191.6,45.5v-2.6c0.1-0.9-0.6-1.6-1.4-1.6c-0.1,0-0.1,0-0.2,0c-0.6,0-1.1,0.2-1.5,0.7c-0.3-0.5-0.8-0.8-1.4-0.7
			c-0.5,0-1,0.2-1.2,0.6v-0.5H185v4.2h0.9v-2.3c-0.1-0.5,0.3-1,0.8-1.1c0.1,0,0.1,0,0.2,0c0.6,0,0.9,0.4,0.9,1.1v2.3h0.9v-2.3
			c-0.1-0.5,0.3-1,0.8-1.1c0.1,0,0.1,0,0.2,0c0.6,0,0.9,0.4,0.9,1.1v2.3L191.6,45.5z M196.7,43.5v-2.1h-0.9v0.5
			c-0.3-0.4-0.8-0.6-1.3-0.6c-1.2,0-2.2,1-2.2,2.2s1,2.2,2.2,2.2c0.5,0,1-0.2,1.3-0.6v0.5h0.9L196.7,43.5z M193.3,43.5
			c0-0.7,0.6-1.2,1.3-1.2c0.7,0,1.2,0.6,1.2,1.3c0,0.7-0.6,1.2-1.2,1.2c-0.7,0-1.3-0.5-1.3-1.2C193.3,43.5,193.3,43.5,193.3,43.5
			L193.3,43.5z M216,41.3c0.3,0,0.6,0.1,0.9,0.2c0.3,0.1,0.5,0.3,0.7,0.5c0.2,0.2,0.4,0.4,0.5,0.7c0.2,0.6,0.2,1.2,0,1.7
			c-0.1,0.3-0.3,0.5-0.5,0.7c-0.2,0.2-0.4,0.4-0.7,0.5c-0.6,0.2-1.2,0.2-1.8,0c-0.3-0.1-0.5-0.3-0.7-0.5c-0.2-0.2-0.4-0.4-0.5-0.7
			c-0.2-0.6-0.2-1.2,0-1.7c0.1-0.3,0.3-0.5,0.5-0.7c0.2-0.2,0.4-0.4,0.7-0.5C215.4,41.3,215.7,41.3,216,41.3L216,41.3z M216,42.2
			c-0.2,0-0.4,0-0.5,0.1c-0.2,0.1-0.3,0.2-0.4,0.3c-0.1,0.1-0.2,0.3-0.3,0.4c-0.1,0.3-0.1,0.7,0,1.1c0.1,0.2,0.2,0.3,0.3,0.4
			c0.1,0.1,0.3,0.2,0.4,0.3c0.3,0.1,0.7,0.1,1,0c0.2-0.1,0.3-0.2,0.4-0.3c0.1-0.1,0.2-0.3,0.3-0.4c0.1-0.3,0.1-0.7,0-1.1
			c-0.1-0.2-0.2-0.3-0.3-0.4c-0.1-0.1-0.3-0.2-0.4-0.3C216.4,42.2,216.2,42.1,216,42.2L216,42.2z M201.6,43.5c0-1.3-0.8-2.2-2-2.2
			c-1.2,0-2.2,1-2.1,2.2c0,1.2,1,2.2,2.2,2.1c0.6,0,1.2-0.2,1.7-0.6l-0.4-0.7c-0.3,0.3-0.8,0.4-1.2,0.4c-0.6,0.1-1.2-0.4-1.2-1h3.1
			C201.6,43.7,201.6,43.6,201.6,43.5z M198.5,43.1c0-0.6,0.5-1,1.1-1c0.6,0,1,0.4,1.1,1c0,0,0,0,0,0L198.5,43.1z M205.4,42.4
			c-0.4-0.2-0.8-0.4-1.3-0.4c-0.5,0-0.8,0.2-0.8,0.5c0,0.3,0.3,0.4,0.7,0.4l0.4,0.1c0.9,0.1,1.5,0.5,1.5,1.2s-0.7,1.4-1.9,1.4
			c-0.6,0-1.3-0.2-1.8-0.5l0.4-0.7c0.4,0.3,0.9,0.4,1.4,0.4c0.6,0,0.9-0.2,0.9-0.5c0-0.2-0.2-0.4-0.7-0.4l-0.4-0.1
			c-0.9-0.1-1.4-0.5-1.4-1.2c0-0.8,0.7-1.3,1.7-1.3c0.6,0,1.2,0.1,1.7,0.4L205.4,42.4z M209.8,42.2h-1.5v1.9c0,0.4,0.1,0.7,0.6,0.7
			c0.3,0,0.6-0.1,0.8-0.2l0.3,0.8c-0.3,0.2-0.7,0.3-1.1,0.3c-1.1,0-1.4-0.6-1.4-1.5v-1.9h-0.8v-0.8h0.8v-1.3h0.9v1.3h1.5V42.2z
			 M212.9,41.3c0.2,0,0.4,0,0.6,0.1l-0.3,0.9c-0.2-0.1-0.4-0.1-0.6-0.1c-0.6,0-0.9,0.4-0.9,1.1v2.3h-0.9v-4.2h0.9v0.5
			C212.1,41.5,212.5,41.3,212.9,41.3L212.9,41.3z M219.2,44.9c0.1,0,0.1,0,0.2,0c0.1,0,0.1,0,0.1,0.1c0,0,0.1,0.1,0.1,0.1
			c0,0.1,0,0.2,0,0.3c0,0-0.1,0.1-0.1,0.1c0,0-0.1,0.1-0.1,0.1c-0.1,0-0.1,0-0.2,0c-0.2,0-0.3-0.1-0.4-0.3c0-0.1,0-0.2,0-0.3
			c0,0,0.1-0.1,0.1-0.1c0,0,0.1-0.1,0.1-0.1C219,44.9,219.1,44.9,219.2,44.9L219.2,44.9z M219.2,45.7c0,0,0.1,0,0.1,0
			c0,0,0.1,0,0.1-0.1c0.1-0.1,0.1-0.3,0-0.5c0,0-0.1-0.1-0.1-0.1c0,0-0.1,0-0.1,0c0,0-0.1,0-0.1,0c0,0-0.1,0-0.1,0.1
			c-0.1,0.1-0.1,0.3,0,0.4C219,45.6,219.1,45.7,219.2,45.7L219.2,45.7z M219.2,45.2c0,0,0.1,0,0.1,0c0,0,0,0.1,0,0.1
			c0,0,0,0.1,0,0.1c0,0-0.1,0-0.1,0l0.1,0.1h-0.1l-0.1-0.1h0v0.1H219v-0.4L219.2,45.2z M219.1,45.2v0.1h0.1c0,0,0,0,0.1,0
			c0,0,0,0,0,0c0,0,0,0,0,0C219.2,45.2,219.2,45.2,219.1,45.2L219.1,45.2z"/>
		<g id="_Group__1_">
			<rect x="194.9" y="9.6" class="st8" width="13.7" height="24.7"/>
			<path id="_Path__1_" class="st6" d="M195.7,21.9c0-4.8,2.2-9.4,6-12.4c-6.8-5.4-16.7-4.2-22.1,2.6s-4.2,16.7,2.6,22.1
				c5.7,4.5,13.7,4.5,19.4,0C197.9,31.3,195.7,26.8,195.7,21.9z"/>
			<g>
				<polyline class="st9" points="225.3,31.2 225.5,31.2 225.5,31.7 225.6,31.7 225.6,31.2 225.8,31.2 225.8,31.1 225.3,31.1 				
					"/>
				<polygon class="st9" points="226.6,31.7 226.6,31.1 226.4,31.1 226.2,31.5 226.1,31.1 225.9,31.1 225.9,31.7 226,31.7 226,31.2 
					226.2,31.6 226.3,31.6 226.5,31.2 226.5,31.7 				"/>
			</g>
			<path class="st9" d="M227.1,21.9c0,8.7-7,15.7-15.7,15.7c-3.5,0-6.9-1.2-9.7-3.4c6.8-5.4,8-15.2,2.6-22.1c-0.8-1-1.7-1.9-2.6-2.6
				c6.8-5.4,16.7-4.2,22.1,2.6C226,15,227.1,18.4,227.1,21.9L227.1,21.9z"/>
		</g>
	</g>
	<path class="st1" d="M238,46.2c0,1.5-1.2,2.7-2.7,2.7h-67.2c-1.5,0-2.7-1.2-2.7-2.7V5.8c0-1.5,1.2-2.7,2.7-2.7h67.2
		c1.5,0,2.7,1.2,2.7,2.7V46.2z"/>
</g>
<g id="G_Pay_Lockup_1_">
	<g>
		<path id="Base_1_" class="st0" d="M394.4,2.6h-41.1c-12.9,0-23.4,10.5-23.4,23.4l0,0c0,12.9,10.5,23.4,23.4,23.4h41.1
			c12.9,0,23.4-10.5,23.4-23.4l0,0C417.8,13.1,407.2,2.6,394.4,2.6z"/>
	</g>
	<path id="Outline" class="st10" d="M394.4,4.5c2.9,0,5.7,0.6,8.3,1.7c2.6,1.1,4.8,2.6,6.8,4.6s3.5,4.3,4.6,6.8
		c1.1,2.6,1.7,5.4,1.7,8.3s-0.6,5.7-1.7,8.3s-2.6,4.8-4.6,6.8s-4.3,3.5-6.8,4.6c-2.6,1.1-5.4,1.7-8.3,1.7h-41.1
		c-2.9,0-5.7-0.6-8.3-1.7c-2.6-1.1-4.8-2.6-6.8-4.6s-3.5-4.3-4.6-6.8c-1.1-2.6-1.7-5.4-1.7-8.3s0.6-5.7,1.7-8.3s2.6-4.8,4.6-6.8
		s4.3-3.5,6.8-4.6c2.6-1.1,5.4-1.7,8.3-1.7L394.4,4.5 M394.4,2.6h-41.1c-12.9,0-23.4,10.5-23.4,23.4l0,0c0,12.9,10.5,23.4,23.4,23.4
		h41.1c12.9,0,23.4-10.5,23.4-23.4l0,0C417.8,13.1,407.2,2.6,394.4,2.6L394.4,2.6z"/>
	<g id="Pay_Typeface_3_">
		<path id="Letter_p_3_" class="st10" d="M371.8,27.7v7.1h-2.2V17.3h5.9c1.5,0,2.8,0.5,3.8,1.5c1.1,1,1.6,2.2,1.6,3.7
			s-0.5,2.7-1.6,3.7c-1,1-2.3,1.5-3.8,1.5H371.8L371.8,27.7L371.8,27.7z M371.8,19.4v6.1h3.8c0.9,0,1.6-0.3,2.2-0.9s0.9-1.3,0.9-2.1
			c0-0.8-0.3-1.5-0.9-2.1s-1.3-0.9-2.2-0.9L371.8,19.4L371.8,19.4z"/>
		<path id="Letter_a_3_" class="st10" d="M386.8,22.4c1.7,0,3,0.4,3.9,1.3s1.4,2.1,1.4,3.6v7.4H390V33h-0.1c-0.9,1.4-2.2,2-3.7,2
			c-1.3,0-2.4-0.4-3.3-1.2s-1.3-1.8-1.3-2.9c0-1.2,0.5-2.2,1.4-2.9c0.9-0.7,2.2-1.1,3.7-1.1c1.3,0,2.4,0.2,3.3,0.7v-0.5
			c0-0.8-0.3-1.4-0.9-2s-1.3-0.8-2.2-0.8c-1.3,0-2.2,0.5-3,1.6l-2-1.2C383.1,23.2,384.7,22.4,386.8,22.4z M383.9,31.1
			c0,0.6,0.2,1.1,0.7,1.5c0.5,0.4,1.1,0.6,1.7,0.6c0.9,0,1.8-0.4,2.5-1.1s1.1-1.5,1.1-2.5c-0.7-0.5-1.7-0.8-2.9-0.8
			c-0.9,0-1.7,0.2-2.3,0.7C384.2,29.9,383.9,30.4,383.9,31.1z"/>
		<path id="Letter_y_3_" class="st10" d="M404.4,22.8L396.9,40h-2.3l2.8-6l-4.9-11.2h2.4l3.6,8.6l0,0l3.5-8.6H404.4z"/>
	</g>
	<g id="G_Mark_1_">
		<path id="Blue_500" class="st11" d="M362.9,26.2c0-0.7-0.1-1.4-0.2-2.1h-9.4V28h5.4c-0.2,1.3-0.9,2.4-2,3.1v2.5h3.2
			C361.8,31.9,362.9,29.3,362.9,26.2z"/>
		<path id="Green_500_1_" class="st12" d="M356.7,31.1c-0.9,0.6-2.1,1-3.4,1c-2.6,0-4.8-1.8-5.6-4.1h-3.3v2.6c1.6,3.3,5,5.5,9,5.5
			c2.7,0,5-0.9,6.6-2.4L356.7,31.1z"/>
		<path id="Yellow_500_1_" class="st13" d="M347.3,26c0-0.7,0.1-1.3,0.3-1.9v-2.6h-3.3c-0.7,1.4-1.1,2.9-1.1,4.5s0.4,3.1,1.1,4.5
			l3.3-2.6C347.4,27.3,347.3,26.7,347.3,26z"/>
		<path id="Red_500" class="st14" d="M353.3,20c1.5,0,2.8,0.5,3.8,1.5l2.9-2.9c-1.7-1.6-4-2.6-6.7-2.6c-3.9,0-7.3,2.2-9,5.5l3.3,2.6
			C348.5,21.7,350.7,20,353.3,20z"/>
	</g>
</g>
</svg>
